<?xml version="1.0" standalone="no"?>
<!DOCTYPE svg PUBLIC "-//W3C//DTD SVG 20010904//EN"
 "http://www.w3.org/TR/2001/REC-SVG-20010904/DTD/svg10.dtd">
<svg version="1.0" xmlns="http://www.w3.org/2000/svg"
 width="700.000000pt" height="700.000000pt" viewBox="0 0 700.000000 700.000000"
 preserveAspectRatio="xMidYMid meet">
<metadata>
Created by potrace 1.11, written by Peter Selinger 2001-2013
</metadata>
<g transform="translate(0.000000,700.000000) scale(0.100000,-0.100000)"
fill="#000000" stroke="none">
<path d="M170 5900 c-74 -20 -154 -94 -165 -152 -3 -18 -4 -1045 -3 -2283 l3
-2250 29 -37 c31 -42 78 -74 128 -89 53 -15 6606 -13 6658 2 54 16 113 69 142
127 l23 47 1 2205 c1 1213 -1 2220 -4 2238 -9 60 -62 132 -122 166 l-55 31
-3305 1 c-1818 0 -3316 -3 -3330 -6z"/>
</g>
</svg>
